<?xml version="1.0" standalone="no"?>
<!DOCTYPE svg PUBLIC "-//W3C//DTD SVG 20010904//EN"
 "http://www.w3.org/TR/2001/REC-SVG-20010904/DTD/svg10.dtd">
<svg version="1.0" xmlns="http://www.w3.org/2000/svg"
 width="484.000000pt" height="480.000000pt" viewBox="0 0 484.000000 480.000000"
 preserveAspectRatio="xMidYMid meet">

<g transform="translate(0.000000,480.000000) scale(0.100000,-0.100000)"
fill="#000000" stroke="none">
<path d="M2228 4669 c-805 -66 -1526 -567 -1879 -1304 -249 -520 -289 -1149
-108 -1696 231 -698 767 -1234 1468 -1469 228 -76 448 -110 713 -110 372 0
693 74 1017 236 252 125 441 264 632 461 343 356 553 782 626 1273 24 161 24
494 -1 650 -64 413 -232 797 -489 1115 -78 97 -256 274 -352 350 -458 364
-1044 542 -1627 494z m477 -539 c577 -94 1070 -465 1319 -992 330 -696 175
-1512 -387 -2044 -130 -123 -257 -212 -422 -294 -162 -81 -308 -131 -473 -162
-172 -33 -478 -33 -642 0 -364 74 -672 236 -926 488 -598 593 -694 1531 -229
2230 282 423 715 701 1214 779 135 21 404 19 546 -5z"/>
<path d="M3124 3180 c-133 -35 -242 -107 -310 -205 l-38 -56 -17 50 c-23 71
-56 116 -114 156 -76 51 -149 68 -269 63 -112 -6 -183 -28 -251 -78 -77 -57
-81 -58 -123 -17 -20 20 -64 49 -97 64 -56 26 -69 28 -185 28 -152 0 -210 -19
-295 -97 l-55 -50 0 61 0 61 -175 0 -175 0 0 -600 0 -600 175 0 175 0 0 375
c0 402 5 456 48 507 63 74 194 78 259 7 39 -44 43 -87 43 -496 l0 -393 175 0
175 0 0 363 c0 199 5 389 10 422 16 101 65 147 163 153 52 3 67 0 96 -20 19
-12 44 -36 55 -51 20 -28 21 -40 24 -448 l3 -419 174 0 175 0 0 100 c0 55 2
100 4 100 2 0 38 -34 79 -75 121 -121 248 -170 442 -170 181 1 324 53 444 162
59 53 151 165 151 183 0 8 -260 144 -264 138 -2 -1 -11 -18 -21 -37 -31 -62
-103 -129 -161 -151 -77 -28 -174 -27 -240 4 -88 41 -154 144 -154 243 l0 33
431 0 432 0 -7 83 c-19 217 -74 358 -183 465 -80 79 -143 115 -249 142 -101
26 -252 26 -350 0z m235 -241 c94 -20 158 -90 176 -191 l7 -38 -246 0 -246 0
6 28 c23 94 84 165 166 193 63 22 72 22 137 8z"/>
<path d="M1778 1590 c-78 -23 -128 -82 -136 -160 -9 -94 51 -168 232 -287 281
-186 669 -210 982 -64 141 66 295 185 331 256 20 39 20 122 0 162 -29 56 -107
104 -167 103 -37 -1 -91 -31 -160 -87 -147 -120 -289 -169 -469 -161 -165 8
-288 58 -421 175 -75 65 -128 83 -192 63z"/>
</g>
</svg>
