<?xml version="1.0" encoding="UTF-8"?>
<svg version="1.1" xmlns="http://www.w3.org/2000/svg" width="674" height="674">
<path d="M0 0 C1.18225662 -0.00101212 1.18225662 -0.00101212 2.38839722 -0.00204468 C13.92329502 0.01367224 24.95386272 0.41741003 36.1875 3.25 C36.91598145 3.42160645 37.64446289 3.59321289 38.39501953 3.77001953 C49.54447306 6.42284507 59.89849301 10.2228945 70.1875 15.25 C70.89825684 15.59579102 71.60901367 15.94158203 72.34130859 16.29785156 C95.52445604 27.72232564 113.4403428 45.19772653 131.5246582 63.32836914 C133.32449363 65.12548878 135.12475299 66.92218392 136.92539978 68.7184906 C141.27516451 73.06013722 145.6202916 77.40637603 149.9630817 81.7549978 C153.49588357 85.29234443 157.0306667 88.82770014 160.56682396 92.36169243 C161.32608061 93.12048938 161.32608061 93.12048938 162.10067579 93.89461557 C163.1294063 94.92270655 164.15814126 95.95079308 165.18688061 96.97887521 C174.79566403 106.5819779 184.39834717 116.19116167 193.99889823 125.80249356 C202.21592876 134.02846571 210.43819977 142.24916915 218.66430664 150.46606445 C228.24945 160.04047922 237.83130809 169.61816252 247.40802449 179.20100683 C248.43109713 180.22471648 249.45417391 181.248422 250.47725487 182.27212334 C251.23205495 183.02738624 251.23205495 183.02738624 252.00210351 183.79790698 C255.52882721 187.32634926 259.05784904 190.8524827 262.58779335 194.37770271 C267.3458763 199.12955663 272.09856358 203.88674501 276.8477726 208.64747047 C278.58544125 210.38777105 280.32479069 212.12639535 282.06599045 213.86316299 C299.00211311 230.76016301 299.00211311 230.76016301 306.1875 240.25 C306.6431046 240.85043153 307.0987092 241.45086306 307.56812 242.06948948 C328.04958127 269.81412116 338.6684635 302.00309901 338.5 336.4375 C338.49726578 337.59727859 338.49726578 337.59727859 338.49447632 338.78048706 C338.44917446 350.19139098 337.98911592 361.13920125 335.1875 372.25 C335.01589355 372.97848145 334.84428711 373.70696289 334.66748047 374.45751953 C332.01465493 385.60697306 328.2146055 395.96099301 323.1875 406.25 C322.84170898 406.96075684 322.49591797 407.67151367 322.13964844 408.40380859 C310.71517436 431.58695604 293.23977347 449.5028428 275.10913086 467.5871582 C273.31201122 469.38699363 271.51531608 471.18725299 269.7190094 472.98789978 C265.37736278 477.33766451 261.03112397 481.6827916 256.6825022 486.0255817 C253.14515557 489.55838357 249.60979986 493.0931667 246.07580757 496.62932396 C245.56994293 497.13549506 245.0640783 497.64166617 244.54288443 498.16317579 C243.51479345 499.1919063 242.48670692 500.22064126 241.45862479 501.24938061 C231.8555221 510.85816403 222.24633833 520.46084717 212.63500644 530.06139823 C204.40903429 538.27842876 196.18833085 546.50069977 187.97143555 554.72680664 C178.39702078 564.31195 168.81933748 573.89380809 159.23649317 583.47052449 C158.21278352 584.49359713 157.189078 585.51667391 156.16537666 586.53975487 C155.66186806 587.04295492 155.15835946 587.54615497 154.63959302 588.06460351 C151.11115074 591.59132721 147.5850173 595.12034904 144.05979729 598.65029335 C139.30794337 603.4083763 134.55075499 608.16106358 129.79002953 612.9102726 C128.04972895 614.64794125 126.31110465 616.38729069 124.57433701 618.12849045 C107.67733699 635.06461311 107.67733699 635.06461311 98.1875 642.25 C97.58706847 642.7056046 96.98663694 643.1612092 96.36801052 643.63062 C68.62337884 664.11208127 36.43440099 674.7309635 2 674.5625 C1.22681427 674.56067719 0.45362854 674.55885437 -0.34298706 674.55697632 C-11.75389098 674.51167446 -22.70170125 674.05161592 -33.8125 671.25 C-34.54098145 671.07839355 -35.26946289 670.90678711 -36.02001953 670.72998047 C-47.16947306 668.07715493 -57.52349301 664.2771055 -67.8125 659.25 C-68.52325684 658.90420898 -69.23401367 658.55841797 -69.96630859 658.20214844 C-93.14945604 646.77767436 -111.0653428 629.30227347 -129.1496582 611.17163086 C-130.94949363 609.37451122 -132.74975299 607.57781608 -134.55039978 605.7815094 C-138.90016451 601.43986278 -143.2452916 597.09362397 -147.5880817 592.7450022 C-151.12088357 589.20765557 -154.6556667 585.67229986 -158.19182396 582.13830757 C-158.95108061 581.37951062 -158.95108061 581.37951062 -159.72567579 580.60538443 C-160.7544063 579.57729345 -161.78314126 578.54920692 -162.81188061 577.52112479 C-172.42066403 567.9180221 -182.02334717 558.30883833 -191.62389823 548.69750644 C-199.84092876 540.47153429 -208.06319977 532.25083085 -216.28930664 524.03393555 C-225.87445 514.45952078 -235.45630809 504.88183748 -245.03302449 495.29899317 C-246.05609713 494.27528352 -247.07917391 493.251578 -248.10225487 492.22787666 C-248.60545492 491.72436806 -249.10865497 491.22085946 -249.62710351 490.70209302 C-253.15382721 487.17365074 -256.68284904 483.6475173 -260.21279335 480.12229729 C-264.9708763 475.37044337 -269.72356358 470.61325499 -274.4727726 465.85252953 C-276.21044125 464.11222895 -277.94979069 462.37360465 -279.69099045 460.63683701 C-296.62711311 443.73983699 -296.62711311 443.73983699 -303.8125 434.25 C-304.2681046 433.64956847 -304.7237092 433.04913694 -305.19312 432.43051052 C-325.67458127 404.68587884 -336.2934635 372.49690099 -336.125 338.0625 C-336.12317719 337.28931427 -336.12135437 336.51612854 -336.11947632 335.71951294 C-336.07417446 324.30860902 -335.61411592 313.36079875 -332.8125 302.25 C-332.64089355 301.52151855 -332.46928711 300.79303711 -332.29248047 300.04248047 C-329.63965493 288.89302694 -325.8396055 278.53900699 -320.8125 268.25 C-320.46670898 267.53924316 -320.12091797 266.82848633 -319.76464844 266.09619141 C-308.34017436 242.91304396 -290.86477347 224.9971572 -272.73413086 206.9128418 C-270.93701122 205.11300637 -269.14031608 203.31274701 -267.3440094 201.51210022 C-263.00236278 197.16233549 -258.65612397 192.8172084 -254.3075022 188.4744183 C-250.77015557 184.94161643 -247.23479986 181.4068333 -243.70080757 177.87067604 C-243.19494293 177.36450494 -242.6890783 176.85833383 -242.16788443 176.33682421 C-241.13979345 175.3080937 -240.11170692 174.27935874 -239.08362479 173.25061939 C-229.4805221 163.64183597 -219.87133833 154.03915283 -210.26000644 144.43860177 C-202.03403429 136.22157124 -193.81333085 127.99930023 -185.59643555 119.77319336 C-176.02202078 110.18805 -166.44433748 100.60619191 -156.86149317 91.02947551 C-155.83778352 90.00640287 -154.814078 88.98332609 -153.79037666 87.96024513 C-153.28686806 87.45704508 -152.78335946 86.95384503 -152.26459302 86.43539649 C-148.73615074 82.90867279 -145.2100173 79.37965096 -141.68479729 75.84970665 C-136.93294337 71.0916237 -132.17575499 66.33893642 -127.41502953 61.5897274 C-125.67472895 59.85205875 -123.93610465 58.11270931 -122.19933701 56.37150955 C-105.33495404 39.46807945 -105.33495404 39.46807945 -95.8125 32.25 C-95.22263274 31.79967753 -94.63276548 31.34935507 -94.02502346 30.88538647 C-66.43307331 10.35609109 -34.31303305 0.02624035 0 0 Z M-82.41015625 264.65380859 C-103.56718229 288.73539569 -110.52236211 318.86680876 -108.8125 350.25 C-105.69793871 379.58258375 -89.3138787 406.50330514 -66.60546875 424.90625 C-42.71521905 443.36897873 -12.72710505 450.10781804 17.015625 446.94970703 C45.35830966 442.73587986 71.77413697 427.11148345 89.10400391 404.30419922 C106.67468958 380.2263522 114.37852215 350.40573214 110 320.875 C105.15805075 291.51026002 90.41155949 267.05778222 67.1875 248.25 C19.79953525 214.82456058 -43.34731544 221.84612227 -82.41015625 264.65380859 Z " fill="#2861FF" transform="translate(335.8125,-0.25)"/>
</svg>
